<svg width="11" height="10" viewBox="0 0 11 10" fill="none" xmlns="http://www.w3.org/2000/svg">
<path id="at" d="M10.0046 4.41017C10.0046 1.80982 8.03348 0 5.2 0C2.26398 0 0.251709 2.03155 0.251709 4.99737C0.251709 8.05872 2.21052 10 5.30166 10C6.05714 10 6.78195 9.8922 7.32095 9.7064V8.95092C6.94408 9.12533 6.13427 9.23839 5.31394 9.23839C2.74952 9.23839 1.09571 7.59071 1.09571 5.0333C1.09571 2.54075 2.77932 0.755478 5.122 0.755478C7.51902 0.755478 9.16056 2.23488 9.16056 4.3979C9.16056 5.87204 8.67502 6.82472 7.91954 6.82472C7.48834 6.82472 7.24294 6.57932 7.24294 6.15863V2.6433H6.33848V3.37423H6.24207C6.00894 2.85276 5.46994 2.52936 4.83979 2.52936C3.6128 2.52936 2.75565 3.54777 2.75565 5.00351C2.75565 6.52585 3.59439 7.55039 4.84067 7.55039C5.54181 7.55039 6.08081 7.20859 6.33848 6.59772H6.43488C6.50587 7.18493 7.05101 7.60386 7.75215 7.60386C9.12989 7.60386 10.0046 6.36284 10.0046 4.41017ZM3.71446 5.02717C3.71446 3.97809 4.18773 3.35583 4.99053 3.35583C5.80561 3.35583 6.32621 4.00263 6.32621 5.02717C6.32621 6.05171 5.79947 6.70465 4.97826 6.70465C4.19386 6.70465 3.71446 6.06924 3.71446 5.02717Z" fill="#FFA500"/>
</svg>
