<svg width="11" height="10" viewBox="0 0 11 10" fill="none" xmlns="http://www.w3.org/2000/svg">
<path id="gh" d="M3.43047 8.05198C3.43047 8.09334 3.38291 8.12643 3.32294 8.12643C3.25471 8.13263 3.20715 8.09954 3.20715 8.05198C3.20715 8.01063 3.25471 7.97754 3.31467 7.97754C3.37671 7.97134 3.43047 8.00443 3.43047 8.05198ZM2.78738 7.95893C2.77291 8.00029 2.81427 8.04785 2.8763 8.06026C2.93006 8.08093 2.9921 8.06026 3.0045 8.0189C3.01691 7.97754 2.97762 7.92999 2.91559 7.91138C2.86182 7.8969 2.80186 7.91758 2.78738 7.95893ZM3.70135 7.92378C3.64138 7.93826 3.60003 7.97754 3.60623 8.0251C3.61243 8.06646 3.6662 8.09334 3.72823 8.07887C3.7882 8.06439 3.82955 8.0251 3.82335 7.98375C3.81715 7.94446 3.76131 7.91758 3.70135 7.92378ZM5.06196 0C2.19393 0 0 2.17739 0 5.04541C0 7.3386 1.44332 9.30093 3.50491 9.99158C3.76959 10.0391 3.86264 9.87578 3.86264 9.74137C3.86264 9.61317 3.85643 8.90598 3.85643 8.47175C3.85643 8.47175 2.40898 8.78192 2.10501 7.85554C2.10501 7.85554 1.86928 7.25382 1.53017 7.09873C1.53017 7.09873 1.05664 6.77409 1.56325 6.78029C1.56325 6.78029 2.07813 6.82165 2.36142 7.31378C2.81427 8.11195 3.57315 7.88243 3.86884 7.74595C3.9164 7.4151 4.05081 7.18558 4.19969 7.04911C3.04379 6.9209 1.87756 6.75341 1.87756 4.76419C1.87756 4.19555 2.03471 3.9102 2.36555 3.54626C2.31179 3.41186 2.13603 2.85769 2.41932 2.14223C2.85149 2.00783 3.84609 2.70054 3.84609 2.70054C4.25965 2.58474 4.70423 2.52478 5.14467 2.52478C5.58511 2.52478 6.02968 2.58474 6.44324 2.70054C6.44324 2.70054 7.43785 2.00576 7.87002 2.14223C8.15331 2.85976 7.97754 3.41186 7.92378 3.54626C8.25463 3.91226 8.45727 4.19762 8.45727 4.76419C8.45727 6.75961 7.23934 6.91883 6.08345 7.04911C6.27368 7.21246 6.43497 7.52263 6.43497 8.00856C6.43497 8.70541 6.42877 9.56768 6.42877 9.73724C6.42877 9.87164 6.52389 10.035 6.7865 9.98744C8.85429 9.30093 10.2563 7.3386 10.2563 5.04541C10.2563 2.17739 7.92998 0 5.06196 0ZM2.00989 7.13182C1.98301 7.15249 1.98922 7.20005 2.02437 7.23934C2.05745 7.27243 2.10501 7.2869 2.13189 7.26002C2.15878 7.23934 2.15257 7.19178 2.11742 7.15249C2.08434 7.11941 2.03678 7.10494 2.00989 7.13182ZM1.78657 6.96433C1.7721 6.99121 1.79278 7.02429 1.83413 7.04497C1.86722 7.06565 1.90857 7.05944 1.92305 7.0305C1.93752 7.00361 1.91684 6.97053 1.87549 6.94985C1.83413 6.93745 1.80105 6.94365 1.78657 6.96433ZM2.45654 7.70046C2.42345 7.72734 2.43586 7.78938 2.48342 7.82866C2.53098 7.87622 2.59094 7.88243 2.61783 7.84934C2.64471 7.82246 2.6323 7.76043 2.59094 7.72114C2.54545 7.67358 2.48342 7.66738 2.45654 7.70046ZM2.22081 7.39649C2.18772 7.41717 2.18772 7.47094 2.22081 7.51849C2.25389 7.56605 2.30972 7.58673 2.33661 7.56605C2.36969 7.53917 2.36969 7.48541 2.33661 7.43785C2.30766 7.39029 2.25389 7.36961 2.22081 7.39649Z" fill="white"/>
</svg>
