<svg width="8" height="10" viewBox="0 0 8 10" fill="none" xmlns="http://www.w3.org/2000/svg">
<g id="goo">
<path id="Vector" d="M2.56274 7.4097C2.87197 7.796 3.18567 8.28001 3.35059 8.5731C3.55136 8.95402 3.63382 9.21126 3.7835 9.67017C3.87134 9.92292 3.9538 10 4.12858 10C4.31949 10 4.40643 9.87094 4.47365 9.67017C4.61258 9.23725 4.72103 8.90831 4.89043 8.59371C5.22475 7.9914 5.6478 7.45541 6.0592 6.94094C6.17214 6.79663 6.89366 5.94694 7.21812 5.27292C7.21812 5.27292 7.61428 4.53617 7.61428 3.50632C7.61428 2.5437 7.2226 1.87416 7.2226 1.87416L6.08968 2.17801L5.39953 3.99032L5.22923 4.2377L5.19338 4.28431L5.14677 4.34077L5.06969 4.43309L4.95676 4.54603L4.34369 5.04526L2.8146 5.93081L2.56274 7.4097Z" fill="#34A853"/>
<path id="Vector_2" d="M0.981689 5.14923C1.35724 6.0043 2.07338 6.75092 2.56276 7.4097L5.15306 4.34077C5.15306 4.34077 4.78737 4.8194 4.12859 4.8194C3.39184 4.8194 2.7949 4.23232 2.7949 3.49108C2.7949 2.98109 3.09875 2.63153 3.09875 2.63153L1.342 3.10029L0.981689 5.14923Z" fill="#FBBC04"/>
<path id="Vector_3" d="M5.18353 0.159538C6.04308 0.437391 6.77983 1.01909 7.2226 1.87953L5.15216 4.34615C5.15216 4.34615 5.456 3.99121 5.456 3.4866C5.456 2.72923 4.81784 2.15828 4.12769 2.15828C3.47339 2.15828 3.09784 2.63243 3.09784 2.63243V1.07645L5.18353 0.159538Z" fill="#4285F4"/>
<path id="Vector_4" d="M1.4549 1.24585C1.96937 0.632787 2.87105 0 4.1169 0C4.71921 0 5.17722 0.159541 5.17722 0.159541L3.09781 2.63153H1.62519L1.4549 1.24585Z" fill="#1A73E8"/>
<path id="Vector_5" d="M0.981665 5.14924C0.981665 5.14924 0.641968 4.47432 0.641968 3.50184C0.641968 2.58045 1.00228 1.77647 1.46029 1.25124L3.1032 2.63602L0.981665 5.14924Z" fill="#EA4335"/>
</g>
</svg>
