<svg width="11" height="10" viewBox="0 0 11 10" fill="none" xmlns="http://www.w3.org/2000/svg">
<g id="in">
<path id="Vector" d="M8.62399 8.4602H7.15266V6.15604C7.15266 5.60659 7.14285 4.89928 6.38741 4.89928C5.6211 4.89928 5.50385 5.49792 5.50385 6.11603V8.46004H4.03252V3.72176H5.445V4.36929H5.46477C5.60613 4.1276 5.81039 3.92878 6.0558 3.79399C6.30122 3.65921 6.57859 3.59351 6.85839 3.6039C8.34965 3.6039 8.6246 4.58478 8.6246 5.86085L8.62399 8.4602ZM2.37238 3.07407C2.2035 3.0741 2.03842 3.02405 1.89799 2.93025C1.75756 2.83646 1.6481 2.70313 1.58345 2.54712C1.51879 2.39112 1.50185 2.21944 1.53477 2.05381C1.56769 1.88818 1.64898 1.73603 1.76837 1.6166C1.88775 1.49716 2.03988 1.41582 2.2055 1.38284C2.37112 1.34987 2.5428 1.36674 2.69883 1.43134C2.85486 1.49594 2.98823 1.60535 3.08207 1.74575C3.17592 1.88614 3.22602 2.05121 3.22605 2.22008C3.22607 2.33221 3.20401 2.44324 3.16112 2.54684C3.11823 2.65044 3.05535 2.74458 2.97608 2.82388C2.89681 2.90318 2.8027 2.96609 2.69911 3.00901C2.59553 3.05194 2.4845 3.07405 2.37238 3.07407ZM3.10804 8.4602H1.63518V3.72176H3.10804V8.4602ZM9.3575 6.37346e-05H0.895838C0.703782 -0.00210362 0.518722 0.072066 0.381324 0.206274C0.243925 0.340483 0.16543 0.523749 0.163086 0.715803V9.21257C0.16535 9.40471 0.243795 9.58811 0.381188 9.72246C0.518582 9.8568 0.703687 9.93112 0.895838 9.92907H9.3575C9.55004 9.93149 9.73566 9.85738 9.87359 9.72304C10.0115 9.5887 10.0905 9.4051 10.0932 9.21257V0.71519C10.0904 0.522755 10.0114 0.339281 9.87346 0.205076C9.73552 0.0708705 9.54994 -0.00247425 9.3575 6.37346e-05Z" fill="#0A66C2"/>
</g>
</svg>
