<svg width="11" height="10" viewBox="0 0 11 10" fill="none" xmlns="http://www.w3.org/2000/svg">
<path id="ph" d="M2.50907 0C1.19684 0 0.128113 1.06873 0.128113 2.38095V7.61905C0.128113 8.93127 1.19684 10 2.50907 10H7.74716C9.05938 10 10.1281 8.93127 10.1281 7.61905V2.38095C10.1281 1.06873 9.05938 0 7.74716 0H2.50907ZM2.50907 0.47619H7.74716C8.80208 0.47619 9.65192 1.32603 9.65192 2.38095V7.61905C9.65192 8.67397 8.80208 9.52381 7.74716 9.52381H2.50907C1.45414 9.52381 0.604303 8.67397 0.604303 7.61905V2.38095C0.604303 1.32603 1.45414 0.47619 2.50907 0.47619ZM3.47307 1.67736C2.98609 1.65632 2.61648 1.84135 2.38397 2.0638C2.26772 2.17503 2.18379 2.29403 2.12635 2.40513C2.0689 2.51623 2.03241 2.60783 2.03241 2.72693C2.03241 2.71633 2.02979 2.77201 2.02822 2.83668C2.02665 2.90135 2.02694 2.98853 2.03287 3.09384C2.04477 3.30448 2.08047 3.58939 2.17517 3.92718C2.36458 4.60275 2.79108 5.48895 3.71628 6.41416C4.64149 7.33936 5.52764 7.7658 6.20326 7.95526C6.54107 8.05 6.82594 8.08564 7.03659 8.09756C7.14192 8.10352 7.22861 8.10378 7.29329 8.10221C7.35797 8.10064 7.41408 8.09803 7.4035 8.09803C7.52261 8.09803 7.6142 8.06153 7.7253 8.00409C7.8364 7.94665 7.95541 7.86272 8.06664 7.74647C8.28908 7.51396 8.47412 7.14435 8.45308 6.65737C8.44309 6.42511 8.31414 6.21943 8.12383 6.09747C7.97677 6.00323 7.74846 5.85695 7.45047 5.66639C7.10473 5.44549 6.66252 5.42971 6.30185 5.62733L6.32231 5.61709L6.0419 5.73754L6.02143 5.75195C5.95328 5.79981 5.86886 5.80867 5.79218 5.7766C5.57735 5.68677 5.24263 5.51026 4.93141 5.19903C4.62018 4.8878 4.44367 4.55308 4.35384 4.33826C4.32176 4.26157 4.33063 4.17716 4.37848 4.109L4.3929 4.08854L4.51334 3.80813L4.50311 3.82859C4.70068 3.46801 4.68531 3.02581 4.46405 2.67997C4.27349 2.38198 4.1272 2.15367 4.03297 2.0066C3.911 1.8163 3.70533 1.68735 3.47307 1.67736ZM3.45261 2.15309C3.5194 2.15596 3.58836 2.19503 3.63211 2.2633C3.72645 2.41052 3.8728 2.63894 4.06319 2.93666C4.18955 3.13416 4.19843 3.39371 4.08552 3.5998L4.07994 3.61003L3.96507 3.87835L3.98879 3.8351C3.84807 4.03551 3.81979 4.29578 3.91439 4.52195C4.02169 4.77856 4.2269 5.16789 4.59472 5.53571C4.96254 5.90353 5.35188 6.10874 5.60849 6.21605C5.83466 6.31065 6.09492 6.28236 6.29534 6.14165L6.25209 6.16536L6.52041 6.0505L6.53064 6.04492C6.73664 5.93206 6.99618 5.94146 7.19378 6.06771V6.06724C7.4915 6.25764 7.71992 6.40399 7.86714 6.49833C7.9354 6.54208 7.97448 6.61104 7.97735 6.67783C7.99297 7.03942 7.86739 7.2658 7.72251 7.41722C7.65008 7.49294 7.57153 7.54788 7.50674 7.58138C7.44195 7.61488 7.37999 7.62184 7.4035 7.62184C7.35983 7.62184 7.33683 7.6247 7.28213 7.62602C7.22743 7.62736 7.1541 7.62743 7.06357 7.6223C6.8825 7.61206 6.63258 7.58115 6.33161 7.49674C5.72967 7.32794 4.92276 6.94727 4.05296 6.07747C3.18317 5.20768 2.80244 4.4007 2.63369 3.79883C2.54932 3.49789 2.51836 3.24791 2.50814 3.06687C2.50302 2.97635 2.50309 2.90301 2.50441 2.84831C2.50575 2.79361 2.5086 2.77064 2.5086 2.72693C2.5086 2.75045 2.51556 2.68848 2.54906 2.6237C2.58255 2.55891 2.6375 2.48036 2.71321 2.40792C2.86464 2.26305 3.09102 2.13746 3.45261 2.15309Z" fill="white"/>
</svg>
