<svg width="11" height="10" viewBox="0 0 11 10" fill="none" xmlns="http://www.w3.org/2000/svg">
<g id="tg">
<path id="Vector" d="M5.12811 10C7.88954 10 10.1281 7.76142 10.1281 5C10.1281 2.23858 7.88954 0 5.12811 0C2.36669 0 0.128113 2.23858 0.128113 5C0.128113 7.76142 2.36669 10 5.12811 10Z" fill="url(#paint0_linear_10_381)"/>
<path id="Vector_2" d="M2.20903 4.95665L5.57609 3.56937C5.90846 3.42486 7.03562 2.96243 7.03562 2.96243C7.03562 2.96243 7.55585 2.76012 7.5125 3.25145C7.49805 3.45376 7.38244 4.16185 7.26684 4.92775L6.90557 7.19654C6.90557 7.19654 6.87666 7.52891 6.631 7.58671C6.38533 7.64451 5.98071 7.3844 5.90846 7.32659C5.85065 7.28324 4.82464 6.63295 4.44892 6.31503C4.34776 6.22833 4.23215 6.05492 4.46337 5.85261C4.9836 5.37573 5.60499 4.78324 5.98071 4.40752C6.15412 4.23411 6.32753 3.82948 5.60499 4.32081L3.56741 5.69365C3.56741 5.69365 3.3362 5.83815 2.90267 5.7081C2.46915 5.57804 1.96337 5.40463 1.96337 5.40463C1.96337 5.40463 1.61655 5.18787 2.20903 4.95665Z" fill="white"/>
</g>
<defs>
<linearGradient id="paint0_linear_10_381" x1="6.79516" y1="1.66705" x2="4.29516" y2="7.5" gradientUnits="userSpaceOnUse">
<stop stop-color="#37AEE2"/>
<stop offset="1" stop-color="#1E96C8"/>
</linearGradient>
</defs>
</svg>
